solid exported
	facet normal 1 0 0
		outer loop
			vertex 5 17.700000762939453 5
			vertex 5 7.699999809265137 5
			vertex 5 17.700000762939453 -5
		endloop
	endfacet
	facet normal 1 0 0
		outer loop
			vertex 5 7.699999809265137 5
			vertex 5 7.699999809265137 -5
			vertex 5 17.700000762939453 -5
		endloop
	endfacet
	facet normal -1 0 0
		outer loop
			vertex -5 17.700000762939453 -5
			vertex -5 7.699999809265137 -5
			vertex -5 17.700000762939453 5
		endloop
	endfacet
	facet normal -1 0 0
		outer loop
			vertex -5 7.699999809265137 -5
			vertex -5 7.699999809265137 5
			vertex -5 17.700000762939453 5
		endloop
	endfacet
	facet normal 0 1 0
		outer loop
			vertex -5 17.700000762939453 -5
			vertex -5 17.700000762939453 5
			vertex 5 17.700000762939453 -5
		endloop
	endfacet
	facet normal 0 1 0
		outer loop
			vertex -5 17.700000762939453 5
			vertex 5 17.700000762939453 5
			vertex 5 17.700000762939453 -5
		endloop
	endfacet
	facet normal 0 -1 0
		outer loop
			vertex -5 7.699999809265137 5
			vertex -5 7.699999809265137 -5
			vertex 5 7.699999809265137 5
		endloop
	endfacet
	facet normal 0 -1 0
		outer loop
			vertex -5 7.699999809265137 -5
			vertex 5 7.699999809265137 -5
			vertex 5 7.699999809265137 5
		endloop
	endfacet
	facet normal 0 0 1
		outer loop
			vertex -5 17.700000762939453 5
			vertex -5 7.699999809265137 5
			vertex 5 17.700000762939453 5
		endloop
	endfacet
	facet normal 0 0 1
		outer loop
			vertex -5 7.699999809265137 5
			vertex 5 7.699999809265137 5
			vertex 5 17.700000762939453 5
		endloop
	endfacet
	facet normal 0 0 -1
		outer loop
			vertex 5 17.700000762939453 -5
			vertex 5 7.699999809265137 -5
			vertex -5 17.700000762939453 -5
		endloop
	endfacet
	facet normal 0 0 -1
		outer loop
			vertex 5 7.699999809265137 -5
			vertex -5 7.699999809265137 -5
			vertex -5 17.700000762939453 -5
		endloop
	endfacet
endsolid exported
solid exported
	facet normal 1 0 0
		outer loop
			vertex 5 7.699999809265137 5
			vertex 5 -5 5
			vertex 5 7.699999809265137 -5
		endloop
	endfacet
	facet normal 1 0 0
		outer loop
			vertex 5 -5 5
			vertex 5 -5 -5
			vertex 5 7.699999809265137 -5
		endloop
	endfacet
	facet normal -1 0 0
		outer loop
			vertex -5 7.699999809265137 -5
			vertex -5 -5 -5
			vertex -5 7.699999809265137 5
		endloop
	endfacet
	facet normal -1 0 0
		outer loop
			vertex -5 -5 -5
			vertex -5 -5 5
			vertex -5 7.699999809265137 5
		endloop
	endfacet
	facet normal 0 1 0
		outer loop
			vertex -5 7.699999809265137 -5
			vertex -5 7.699999809265137 5
			vertex 5 7.699999809265137 -5
		endloop
	endfacet
	facet normal 0 1 0
		outer loop
			vertex -5 7.699999809265137 5
			vertex 5 7.699999809265137 5
			vertex 5 7.699999809265137 -5
		endloop
	endfacet
	facet normal 0 -1 0
		outer loop
			vertex -5 -5 5
			vertex -5 -5 -5
			vertex 5 -5 5
		endloop
	endfacet
	facet normal 0 -1 0
		outer loop
			vertex -5 -5 -5
			vertex 5 -5 -5
			vertex 5 -5 5
		endloop
	endfacet
	facet normal 0 0 1
		outer loop
			vertex -5 7.699999809265137 5
			vertex -5 -5 5
			vertex 5 7.699999809265137 5
		endloop
	endfacet
	facet normal 0 0 1
		outer loop
			vertex -5 -5 5
			vertex 5 -5 5
			vertex 5 7.699999809265137 5
		endloop
	endfacet
	facet normal 0 0 -1
		outer loop
			vertex 5 7.699999809265137 -5
			vertex 5 -5 -5
			vertex -5 7.699999809265137 -5
		endloop
	endfacet
	facet normal 0 0 -1
		outer loop
			vertex 5 -5 -5
			vertex -5 -5 -5
			vertex -5 7.699999809265137 -5
		endloop
	endfacet
endsolid exported
