solid exported
	facet normal 1 0 0
		outer loop
			vertex 5 4.440892098500626e-16 7.071067810058594
			vertex 5 -7.071067810058594 4.440892098500626e-16
			vertex 5 7.071067810058594 -4.440892098500626e-16
		endloop
	endfacet
	facet normal 1 0 0
		outer loop
			vertex 5 -7.071067810058594 4.440892098500626e-16
			vertex 5 -4.440892098500626e-16 -7.071067810058594
			vertex 5 7.071067810058594 -4.440892098500626e-16
		endloop
	endfacet
	facet normal -1 0 0
		outer loop
			vertex -5 7.071067810058594 -4.440892098500626e-16
			vertex -5 -4.440892098500626e-16 -7.071067810058594
			vertex -5 4.440892098500626e-16 7.071067810058594
		endloop
	endfacet
	facet normal -1 0 0
		outer loop
			vertex -5 -4.440892098500626e-16 -7.071067810058594
			vertex -5 -7.071067810058594 4.440892098500626e-16
			vertex -5 4.440892098500626e-16 7.071067810058594
		endloop
	endfacet
	facet normal 0 0.7071067811865476 0.7071067811865476
		outer loop
			vertex -5 7.071067810058594 -4.440892098500626e-16
			vertex -5 4.440892098500626e-16 7.071067810058594
			vertex 5 7.071067810058594 -4.440892098500626e-16
		endloop
	endfacet
	facet normal 0 0.7071067811865476 0.7071067811865476
		outer loop
			vertex -5 4.440892098500626e-16 7.071067810058594
			vertex 5 4.440892098500626e-16 7.071067810058594
			vertex 5 7.071067810058594 -4.440892098500626e-16
		endloop
	endfacet
	facet normal 0 -0.7071067811865476 -0.7071067811865476
		outer loop
			vertex -5 -7.071067810058594 4.440892098500626e-16
			vertex -5 -4.440892098500626e-16 -7.071067810058594
			vertex 5 -7.071067810058594 4.440892098500626e-16
		endloop
	endfacet
	facet normal 0 -0.7071067811865476 -0.7071067811865476
		outer loop
			vertex -5 -4.440892098500626e-16 -7.071067810058594
			vertex 5 -4.440892098500626e-16 -7.071067810058594
			vertex 5 -7.071067810058594 4.440892098500626e-16
		endloop
	endfacet
	facet normal 0 -0.7071067811865476 0.7071067811865476
		outer loop
			vertex -5 4.440892098500626e-16 7.071067810058594
			vertex -5 -7.071067810058594 4.440892098500626e-16
			vertex 5 4.440892098500626e-16 7.071067810058594
		endloop
	endfacet
	facet normal 0 -0.7071067811865476 0.7071067811865476
		outer loop
			vertex -5 -7.071067810058594 4.440892098500626e-16
			vertex 5 -7.071067810058594 4.440892098500626e-16
			vertex 5 4.440892098500626e-16 7.071067810058594
		endloop
	endfacet
	facet normal 0 0.7071067811865476 -0.7071067811865476
		outer loop
			vertex 5 7.071067810058594 -4.440892098500626e-16
			vertex 5 -4.440892098500626e-16 -7.071067810058594
			vertex -5 7.071067810058594 -4.440892098500626e-16
		endloop
	endfacet
	facet normal 0 0.7071067811865476 -0.7071067811865476
		outer loop
			vertex 5 -4.440892098500626e-16 -7.071067810058594
			vertex -5 -4.440892098500626e-16 -7.071067810058594
			vertex -5 7.071067810058594 -4.440892098500626e-16
		endloop
	endfacet
endsolid exported
